<?xml version="1.0" encoding="UTF-8" standalone="no"?>
<!-- Created with Inkscape (http://www.inkscape.org/) -->

<svg
   xmlns:osb="http://www.openswatchbook.org/uri/2009/osb"
   xmlns:dc="http://purl.org/dc/elements/1.1/"
   xmlns:cc="http://creativecommons.org/ns#"
   xmlns:rdf="http://www.w3.org/1999/02/22-rdf-syntax-ns#"
   xmlns:svg="http://www.w3.org/2000/svg"
   xmlns="http://www.w3.org/2000/svg"
   xmlns:sodipodi="http://sodipodi.sourceforge.net/DTD/sodipodi-0.dtd"
   xmlns:inkscape="http://www.inkscape.org/namespaces/inkscape"
   id="svg5693"
   sodipodi:docname="hbraffle-feature.svg"
   viewBox="0 0 167.31 87.571"
   version="1.1"
   inkscape:version="0.91 r"
   inkscape:export-filename="/home/bernard/Downloads/hb-tv-banner3.png"
   inkscape:export-xdpi="1102.8434"
   inkscape:export-ydpi="1102.8434">
  <defs
     id="defs3">
    <linearGradient
       id="linearGradient4493"
       osb:paint="solid">
      <stop
         style="stop-color:#000000;stop-opacity:1;"
         offset="0"
         id="stop4495" />
    </linearGradient>
    <linearGradient
       osb:paint="gradient"
       id="linearGradient4201">
      <stop
         id="stop4207"
         offset="0"
         style="stop-color:#ffffff;stop-opacity:1;" />
      <stop
         id="stop4209"
         offset="1"
         style="stop-color:#ffffff;stop-opacity:0;" />
    </linearGradient>
    <linearGradient
       osb:paint="gradient"
       id="linearGradient4177">
      <stop
         id="stop4197"
         offset="0"
         style="stop-color:#ffffff;stop-opacity:1;" />
      <stop
         id="stop4199"
         offset="1"
         style="stop-color:#ffffff;stop-opacity:0;" />
    </linearGradient>
    <linearGradient
       inkscape:collect="always"
       id="linearGradient4211"
       osb:paint="gradient">
      <stop
         style="stop-color:#ffffff;stop-opacity:1;"
         offset="0"
         id="stop4179" />
      <stop
         style="stop-color:#ffffff;stop-opacity:0;"
         offset="1"
         id="stop4181" />
    </linearGradient>
    <filter
       id="filter5631"
       color-interpolation-filters="sRGB"
       inkscape:collect="always">
      <feGaussianBlur
         id="feGaussianBlur5633"
         stdDeviation="0.91741141"
         inkscape:collect="always" />
    </filter>
    <filter
       id="filter5639"
       color-interpolation-filters="sRGB"
       inkscape:collect="always">
      <feGaussianBlur
         id="feGaussianBlur5641"
         stdDeviation="0.97828876"
         inkscape:collect="always" />
    </filter>
  </defs>
  <sodipodi:namedview
     id="base"
     bordercolor="#666666"
     inkscape:pageshadow="2"
     inkscape:window-y="24"
     fit-margin-left="0"
     pagecolor="#ffffff"
     fit-margin-top="0"
     inkscape:window-maximized="1"
     inkscape:zoom="3.959798"
     inkscape:window-x="49"
     inkscape:window-height="1056"
     showgrid="false"
     borderopacity="1.0"
     inkscape:current-layer="layer1"
     inkscape:cx="75.391699"
     inkscape:cy="36.092594"
     fit-margin-right="0"
     fit-margin-bottom="0"
     inkscape:window-width="1871"
     inkscape:pageopacity="0.0"
     inkscape:document-units="mm" />
  <g
     id="layer1"
     inkscape:label="Layer 1"
     inkscape:groupmode="layer"
     transform="translate(-266.35 -488.58)">
    <rect
       y="487.3096"
       x="261.26794"
       height="88.135811"
       width="176.27162"
       id="rect4594"
       style="opacity:1;fill:#917c6f;fill-opacity:1;fill-rule:nonzero;stroke:none;stroke-width:0.70866144;stroke-linecap:square;stroke-linejoin:miter;stroke-miterlimit:4;stroke-dasharray:0.17716535, 0.17716535;stroke-dashoffset:0;stroke-opacity:1" />
    <flowRoot
       style="font-style:normal;font-variant:normal;font-weight:bold;font-stretch:normal;font-size:25px;line-height:125%;font-family:'Times New Roman';-inkscape-font-specification:'Times New Roman';letter-spacing:0px;word-spacing:0px;fill:#000000;fill-opacity:1;stroke:none;stroke-width:1px;stroke-linecap:butt;stroke-linejoin:miter;stroke-opacity:1"
       id="flowRoot4586"
       xml:space="preserve"
       transform="translate(179.91,284.3)"><flowRegion
         id="flowRegion4588"><rect
           y="66.862869"
           x="210.11172"
           height="30.557116"
           width="95.711952"
           id="rect4590" /></flowRegion><flowPara
         id="flowPara4592"></flowPara></flowRoot>    <text
       xml:space="preserve"
       style="font-style:normal;font-variant:normal;font-weight:bold;font-stretch:normal;font-size:25px;line-height:125%;font-family:'Times New Roman';-inkscape-font-specification:'Times New Roman';letter-spacing:0px;word-spacing:0px;fill:#ffffff;fill-opacity:1;stroke:none;stroke-width:1px;stroke-linecap:butt;stroke-linejoin:miter;stroke-opacity:1"
       x="526.62292"
       y="409.54214"
       id="text5131"
       sodipodi:linespacing="125%"
       transform="matrix(0.95099156,0.30921683,-0.30921683,0.95099156,0,0)"><tspan
         sodipodi:role="line"
         id="tspan5133"
         x="526.62292"
         y="409.54214">.com</tspan></text>
    <text
       xml:space="preserve"
       style="font-style:normal;font-variant:normal;font-weight:bold;font-stretch:normal;font-size:42.35759735px;line-height:125%;font-family:'Times New Roman';-inkscape-font-specification:'Times New Roman';letter-spacing:0px;word-spacing:0px;fill:#ffffff;fill-opacity:1;stroke:none;stroke-width:1px;stroke-linecap:butt;stroke-linejoin:miter;stroke-opacity:1"
       x="32.998154"
       y="601.06281"
       id="text5119"
       sodipodi:linespacing="125%"
       transform="matrix(0.90928616,-0.41617145,0.41617145,0.90928616,0,0)"><tspan
         sodipodi:role="line"
         id="tspan5121"
         x="32.998154"
         y="601.06281" /></text>
    <g
       id="g5062"
       transform="matrix(0.96523212,0.26139426,-0.26139426,0.96523212,250.85369,-65.723096)">
      <g
         id="g4893">
        <g
           id="g4885">
          <path
             transform="matrix(0.42910151,0,0,0.42910151,156.91777,302.80768)"
             d="m 280.71,490.92 c 0.0688,0.47077 0.125,0.94753 0.125,1.4375 0,5.457 -4.418,9.875 -9.875,9.875 -0.12419,0 -0.25189,-0.0267 -0.375,-0.0312 l 0,1.2188 c 1.661,1.0012 2.7812,2.8274 2.7812,4.9062 0,2.0788 -1.1202,3.9051 -2.7812,4.9062 l 0,2.1875 c 1.661,1.0012 2.7812,2.8274 2.7812,4.9062 0,2.0788 -1.1202,3.9051 -2.7812,4.9062 l 0,2.1875 c 1.661,1.0012 2.7812,2.8274 2.7812,4.9062 0,2.0788 -1.1202,3.9051 -2.7812,4.9062 l 0,2.1875 c 1.661,1.0012 2.7812,2.8274 2.7812,4.9062 0,2.0788 -1.1202,3.9051 -2.7812,4.9062 l 0,2.1875 c 1.661,1.0012 2.7812,2.8274 2.7812,4.9062 0,2.0788 -1.1202,3.9051 -2.7812,4.9062 l 0,1.2812 c 0.12311,-0.005 0.25081,-0.0312 0.375,-0.0312 5.457,0 9.875,4.418 9.875,9.875 0,0.48997 -0.0562,0.96673 -0.125,1.4375 l 140.44,0 c -0.0693,-0.47077 -0.0937,-0.94753 -0.0937,-1.4375 0,-5.457 4.4493,-9.875 9.9062,-9.875 0.11745,0 0.2273,0.0272 0.34375,0.0312 l 0,-1.2188 c -1.7151,-0.98785 -2.875,-2.8493 -2.875,-4.9688 0,-2.1194 1.1599,-3.9809 2.875,-4.9688 l 0,-2.0625 c -1.7151,-0.98785 -2.875,-2.8493 -2.875,-4.9688 0,-2.1194 1.1599,-3.9809 2.875,-4.9688 l 0,-2.0625 c -1.7151,-0.98785 -2.875,-2.8493 -2.875,-4.9688 0,-2.1194 1.1599,-3.9809 2.875,-4.9688 l 0,-2.0625 c -1.7151,-0.98785 -2.875,-2.8493 -2.875,-4.9688 0,-2.1194 1.1599,-3.9809 2.875,-4.9688 l 0,-2.0625 c -1.7151,-0.98785 -2.875,-2.8493 -2.875,-4.9688 0,-2.1194 1.1599,-3.9809 2.875,-4.9688 l 0,-1.1562 c -0.11645,0.004 -0.2263,0.0312 -0.34375,0.0312 -5.457,0 -9.9062,-4.418 -9.9062,-9.875 0,-0.48997 0.0245,-0.96673 0.0937,-1.4375 l -140.44,0 z"
             inkscape:connector-curvature="0"
             style="fill:#b1b1b1;filter:url(#filter5639)"
             id="path5635" />
          <g
             id="g4879">
            <path
               id="path5608"
               style="fill:#216778"
               inkscape:connector-curvature="0"
               d="m 276.31097,512.5525 c 0.0295,0.20201 0.0536,0.40658 0.0536,0.61683 0,2.34161 -1.89577,4.23738 -4.23738,4.23738 -0.0533,0 -0.10809,-0.0115 -0.16091,-0.0134 l 0,0.52299 c 0.71274,0.42962 1.19341,1.21324 1.19341,2.10526 0,0.89201 -0.48067,1.67568 -1.19341,2.10526 l 0,0.93866 c 0.71274,0.42961 1.19341,1.21324 1.19341,2.10525 0,0.89202 -0.48067,1.67569 -1.19341,2.10526 l 0,0.93866 c 0.71274,0.42962 1.19341,1.21324 1.19341,2.10526 0,0.89201 -0.48067,1.67568 -1.19341,2.10526 l 0,0.93866 c 0.71274,0.42961 1.19341,1.21324 1.19341,2.10525 0,0.89202 -0.48067,1.67569 -1.19341,2.10526 l 0,0.93866 c 0.71274,0.42962 1.19341,1.21324 1.19341,2.10526 0,0.89201 -0.48067,1.67568 -1.19341,2.10526 l 0,0.54976 c 0.0528,-0.002 0.10762,-0.0134 0.16091,-0.0134 2.34161,0 4.23738,1.89577 4.23738,4.23738 0,0.21025 -0.0241,0.41483 -0.0536,0.61683 20.08767,0 33.48802,-46.81127 60.26302,0 -0.0297,-0.202 -0.0402,-0.40658 -0.0402,-0.61683 0,-2.34161 1.9092,-4.23738 4.25077,-4.23738 0.0504,0 0.0975,0.0117 0.1475,0.0134 l 0,-0.52299 c -0.73595,-0.42389 -1.23367,-1.22264 -1.23367,-2.13212 0,-0.90943 0.49772,-1.70821 1.23367,-2.13212 l 0,-0.88502 c -0.73595,-0.42389 -1.23367,-1.22264 -1.23367,-2.13212 0,-0.90944 0.49772,-1.70821 1.23367,-2.13212 l 0,-0.88502 c -0.73595,-0.42389 -1.23367,-1.22264 -1.23367,-2.13212 0,-0.90944 0.49772,-1.70821 1.23367,-2.13212 l 0,-0.88502 c -0.73595,-0.42389 -1.23367,-1.22264 -1.23367,-2.13212 0,-0.90944 0.49772,-1.70821 1.23367,-2.13212 l 0,-0.88502 c -0.73595,-0.42389 -1.23367,-1.22264 -1.23367,-2.13212 0,-0.90944 0.49772,-1.70821 1.23367,-2.13212 l 0,-0.49613 c -0.05,0.002 -0.0971,0.0134 -0.1475,0.0134 -2.34161,0 -4.25077,-1.89577 -4.25077,-4.23738 0,-0.21024 0.0105,-0.41482 0.0402,-0.61683 l -60.26302,0 z"
               sodipodi:nodetypes="cssccsccsccsccsccsccssccssccsccsccsccsccsccssccc" />
            <g
               id="g4875">
              <path
                 d="m 275.55146,512.5525 c 0.0295,0.20201 0.0536,0.40658 0.0536,0.61683 0,2.34161 -1.89577,4.23738 -4.23738,4.23738 -0.0533,0 -0.10809,-0.0115 -0.16091,-0.0134 l 0,0.52299 c 0.71274,0.42962 1.19342,1.21324 1.19342,2.10526 0,0.89201 -0.48068,1.67568 -1.19342,2.10526 l 0,0.93866 c 0.71274,0.42961 1.19342,1.21324 1.19342,2.10525 0,0.89202 -0.48068,1.67569 -1.19342,2.10526 l 0,0.93866 c 0.71274,0.42962 1.19342,1.21324 1.19342,2.10526 0,0.89201 -0.48068,1.67568 -1.19342,2.10526 l 0,0.93866 c 0.71274,0.42961 1.19342,1.21324 1.19342,2.10525 0,0.89202 -0.48068,1.67569 -1.19342,2.10526 l 0,0.93866 c 0.71274,0.42962 1.19342,1.21324 1.19342,2.10526 0,0.89201 -0.48068,1.67568 -1.19342,2.10526 l 0,0.54976 c 0.0528,-0.002 0.10762,-0.0134 0.16091,-0.0134 2.34161,0 4.23738,1.89577 4.23738,4.23738 0,0.21025 -0.0241,0.41483 -0.0536,0.61683 l 60.26302,0 c -0.0297,-0.202 -0.0402,-0.40658 -0.0402,-0.61683 0,-2.34161 1.9092,-4.23738 4.25077,-4.23738 0.0504,0 0.0975,0.0117 0.1475,0.0134 l 0,-0.52299 c -0.73595,-0.42389 -1.23367,-1.22264 -1.23367,-2.13212 0,-0.90943 0.49772,-1.70821 1.23367,-2.13212 l 0,-0.88502 c -0.73595,-0.42389 -1.23367,-1.22264 -1.23367,-2.13212 0,-0.90944 0.49772,-1.70821 1.23367,-2.13212 l 0,-0.88502 c -0.73595,-0.42389 -1.23367,-1.22264 -1.23367,-2.13212 0,-0.90944 0.49772,-1.70821 1.23367,-2.13212 l 0,-0.88502 c -0.73595,-0.42389 -1.23367,-1.22264 -1.23367,-2.13212 0,-0.90944 0.49772,-1.70821 1.23367,-2.13212 l 0,-0.88502 c -0.73595,-0.42389 -1.23367,-1.22264 -1.23367,-2.13212 0,-0.90944 0.49772,-1.70821 1.23367,-2.13212 l 0,-0.49613 c -0.05,0.002 -0.0971,0.0134 -0.1475,0.0134 -2.34161,0 -4.25077,-1.89577 -4.25077,-4.23738 0,-0.21024 0.0105,-0.41482 0.0402,-0.61683 l -60.26302,0 z"
                 inkscape:connector-curvature="0"
                 style="fill:#008080"
                 id="rect3008" />
              <path
                 inkscape:connector-curvature="0"
                 style="opacity:0.71429001;fill:#006680"
                 d="m 275.70594,547.73453 c 0.0295,0.10406 0.0536,0.20945 0.0536,0.31775 0,0.0548 -0.006,0.11203 -0.0134,0.16578 l 60.19436,0 c -0.008,-0.0538 -0.0134,-0.11094 -0.0134,-0.16578 0,-0.1083 0.0106,-0.21369 0.0402,-0.31775 l -60.26302,0 z"
                 id="path5619" />
            </g>
          </g>
        </g>
        <path
           id="path5483"
           style="opacity:0.44082001;fill:#e7cc5b;filter:url(#filter5631)"
           inkscape:connector-curvature="0"
           d="m 407.69,494.93 c -2.2876,0.0383 -4.6064,1.9792 -5.1875,6.3438 -2.778,6.343 -9.6207,-1.8943 -11.156,-0.875 -0.35437,0.23522 -0.42395,0.95315 -0.0937,2.4688 1.3695,1.7489 2.0231,2.9698 2.125,3.7812 -0.23576,-0.0511 -0.44711,-0.0659 -0.59375,0.0312 -0.24541,0.1629 -0.34657,0.58069 -0.28125,1.3125 -0.4845,0.17291 -1.17,0.18414 -1.9375,0.15625 -0.79517,0.95221 -2.0601,1.9019 -2.9375,2.9062 0.7618,0.78352 1.1087,1.9663 1.2812,3.4375 4.7434,-0.56071 4.9617,3.4627 4.9375,8.4062 -1.9782,0.97672 -4.2089,0.30992 -5.2188,-1.5625 1.9768,-1.7584 3.9531,-3.4068 0.375,-5.8125 0.058,0.95375 0.0987,1.9576 0.0937,3.0312 -2.2197,1.096 -4.7916,0.1079 -5.5625,-2.3125 0.0476,-0.97057 -0.0541,-1.7291 -0.25,-2.3438 -0.12496,0.034 -0.26489,0.0791 -0.375,0.125 -0.43456,2.3034 1.3483,5.4014 2.8438,8.2812 -0.55519,0.87427 -1.8092,1.407 -4.1562,1.5 2.6689,2.0274 4.4884,5.0847 6.375,7.8125 1.0274,1.1404 0.80524,2.5342 -0.0937,3.1875 -0.002,0.004 -0.0295,-0.004 -0.0312,0 -0.004,0.003 0.004,0.0283 0,0.0312 -0.20943,0.43461 -0.51914,0.90457 -0.90625,1.4062 -0.75022,2.4269 0.8021,4.6937 3.25,5.0625 0.61775,-0.87817 1.1589,-1.7154 1.6562,-2.5312 1.5621,4.0187 -0.99799,4.2175 -3.625,4.5312 -0.0253,0.22194 -0.0112,0.4418 0,0.65625 0.22888,0.21229 0.4671,0.43342 0.65625,0.6875 -0.13601,0.0625 -0.31202,0.17042 -0.46875,0.28125 0.44922,1.3594 1.6337,2.4175 3.2188,2.6562 2.8443,-4.0434 4.9633,-7.4688 0.75,-9.7188 0.699,-1.306 1.0838,-2.4842 0.90625,-3.5625 1.5926,-0.3975 3.5867,-0.36494 4.8125,-0.96875 -1.7215,-2.471 -3.7819,-3.2156 -5.3438,-2.7188 -0.60506,0.1925 -1.1345,0.57538 -1.5312,1.0938 -0.52586,-0.30612 -1.1442,-0.6123 -1.9062,-0.875 -0.0141,-5.9504 11.732,0.0719 7.5625,-8.6562 -0.71686,-1.2981 -1.0234,-2.4924 -1.0312,-3.5312 0.47466,-0.38404 0.92261,-0.9311 1.2812,-1.75 0.0728,-0.54654 0.15822,-1.0598 0.28125,-1.5312 1.6655,-1.089 4.3164,-0.55455 6.375,2.7188 2.8767,1.807 3.5402,0.36358 3.6562,-1.5938 -0.26402,-0.43597 -0.45605,-0.92772 -0.53125,-1.4688 -0.62284,-0.60342 -1.0582,-1.4013 -1.1562,-2.3438 1.9684,-0.68739 3.9042,-1.2952 3.4688,-3.2812 -0.12673,-0.17855 -0.25633,-0.37043 -0.40625,-0.5625 -0.12585,-0.14367 -0.19991,-0.29451 -0.3125,-0.4375 0.14028,0.0212 0.2426,0.0381 0.375,0.0625 -0.20031,-0.41987 -0.46461,-0.88213 -0.84375,-1.4062 -0.0377,0.19143 -0.10075,0.37241 -0.0937,0.59375 -0.73467,-1.168 -1.0058,-2.2719 -0.96875,-3.25 -0.11997,0.30026 -0.16945,0.61146 -0.15625,1 -1.6792,-2.6696 -1.082,-5.0916 0.59375,-6.0625 1.3458,-0.77979 3.3748,-0.5802 5.4688,1.1875 -0.37083,-3.5604 -2.7707,-5.6343 -5.1875,-5.5938 z m -24.406,18.969 c -0.12348,-0.38736 -0.26572,-0.70001 -0.46875,-0.96875 0.15659,0.31994 0.30259,0.64578 0.46875,0.96875 z M 308.409,495.68 c -0.11994,-0.002 -0.25664,0.0131 -0.375,0.0312 -1.657,0.25446 -3.1213,1.8997 -3.25,4.6562 1.6895,-2.6112 5.4815,0.0348 7.875,-0.125 -0.64982,-2.9406 -2.2729,-4.3954 -3.9062,-4.5312 -0.12063,-0.0101 -0.22381,-0.0292 -0.34375,-0.0312 z m 33,3.6875 c -0.0592,-0.009 -0.13099,0.0203 -0.1875,0.0312 -0.41727,0.0824 -0.75878,0.72298 -1.0312,2.25 0.56369,2.0109 0.69558,3.2918 0.53125,4.0938 1.3331,1.5616 2.4886,2.5459 4.3438,-0.125 0.19652,0.28202 0.36658,0.60646 0.53125,0.9375 3.2837,-1.0982 6.2619,1.65 5.875,5.6562 2.3271,-2.3878 4.9137,-6.5115 7.375,-4.25 0.15687,0.74858 0.14359,1.7062 0,2.75 -2.1196,-0.96341 -4.506,-1.3753 -6.9062,1.5625 -0.216,0.26437 -0.40576,0.51362 -0.5625,0.75 -0.13117,0.63851 -0.34301,1.3205 -0.65625,2 0.0563,0.63486 0.43455,1.1126 1.0312,1.4688 0.26873,-0.27543 0.55135,-0.27133 0.875,0.21875 0.66162,-0.0591 1.3729,0.005 2.1875,0.1875 2.5018,0.56209 3.3815,1.5363 3.625,2.625 1.5096,-0.0959 2.7164,0.29268 3.0625,1.8438 -0.24777,0.58386 -0.64498,1.2049 -1.1875,1.8438 1.0912,-0.23947 2.2279,-0.65796 3.3438,-1.1875 -1.9705,-2.3611 -5.8735,-5.5269 -0.375,-7.0938 3.6484,-1.0396 5.3734,0.65452 6.5625,2.6562 0.71421,-0.7746 1.2637,-1.5459 1.5625,-2.25 -1.3138,-5.8881 -14.834,5.089 -11.469,-5.0625 1.0514,-1.6799 1.5006,-3.3205 1.5,-4.75 -4.3698,1.6228 -3.2924,-2.0396 -4,-5.1875 -1.9771,-0.2476 -4.3426,0.90498 -6.2188,4.1562 -4.8301,4.6553 -7.9758,-4.8526 -9.8125,-5.125 z m 71.5,1.625 c -0.28254,0.17522 -0.59718,0.35563 -0.9375,0.5 0.30791,0.12363 0.61849,0.27893 0.9375,0.46875 0.0153,-0.33412 0.0166,-0.65519 0,-0.96875 z m -108.12,0.3125 c 0.0107,0.18168 0.0101,0.34143 0.0312,0.53125 0.29979,5.485 -2.3233,4.6395 -5.0625,3.875 -1.0284,1.8622 -0.39162,4.1147 1.5,5.25 4.5211,-2.877 8.0206,-5.4063 3.5312,-9.6562 z m 24.531,1.125 c -0.71917,1.1037 -0.87057,2.6947 -0.8125,4.4688 -1.4898,1.3288 -2.4501,2.9462 -1.4375,5.375 0.39208,0.12864 0.83259,0.27856 1.2812,0.4375 1.2651,-2.0385 2.6476,-3.9522 2.125,-5.6875 0.42235,-1.7462 0.99721,-1.8998 1.7188,-1.2188 0.64579,-0.55138 1.3003,-1.0741 1.9688,-1.4062 -1.7946,-1.0319 -3.5859,-1.9743 -4.8438,-1.9688 z m 94.156,0.1875 c -0.41743,0.01 -0.85565,0.1558 -1.3125,0.34375 -0.68095,0.28014 -1.3751,0.68991 -2.0938,1.1875 1.557,0.71166 3.1908,1.3848 4.9375,1.2812 0.18922,-0.65348 0.30699,-1.2472 0.3125,-1.7812 -0.51852,-0.74101 -1.148,-1.0471 -1.8438,-1.0312 z m -10.438,1.125 c -1.6987,0.71605 -3.9287,1.1848 -4.75,2.5938 1.523,0.35865 2.453,0.97872 2.9688,1.7812 0.0344,-0.75143 0.23434,-1.5872 0.6875,-2.5938 0.34675,-0.77019 0.71001,-1.3382 1.0938,-1.7812 z m -29.844,3.7188 c -0.36874,0.008 -0.68891,0.07 -1,0.125 -0.46581,0.85007 -0.5465,1.7813 0.21875,2.875 0.77552,-0.2198 1.456,-0.3258 2.0625,-0.375 0.0294,-0.65212 0.23841,-1.2776 0.625,-1.7812 0.19792,-0.25786 0.43605,-0.46298 0.71875,-0.65625 -0.92749,-0.10759 -1.8406,-0.20408 -2.625,-0.1875 z m -95.438,0.5625 c -0.98065,-0.0107 -2.0315,0.45779 -3.1875,1.5938 -1.4538,1.4286 -1.5616,2.5506 -0.96875,3.5625 1.9597,-0.0215 3.7159,-0.68305 4.4062,-3.375 0.1754,-0.68391 0.24259,-1.247 0.25,-1.7188 -0.17012,-0.029 -0.32669,-0.0606 -0.5,-0.0625 z m 125.06,3.5938 c 0.26797,1.7828 -0.63323,4.1218 -1.7188,6.7188 -0.53804,0.0364 -1.0265,-0.0119 -1.5,-0.15625 0.45261,0.16449 1.1656,0.85772 2.3125,2.3125 0.19949,0.3115 0.40971,0.56757 0.625,0.8125 2.4065,-1.7194 5.1243,-4.0935 6.9062,-2.5625 -0.54082,-3.7956 -4.3946,-5.0615 -6.625,-7.125 z m -5.3438,4.9375 c 0.0475,0.73861 0.0205,1.5183 -0.125,2.375 0.17162,2.4156 0.72842,3.492 1.5312,3.7812 0.11621,-2.1048 -0.38044,-4.7547 0.59375,-4.5625 -0.84197,-0.2862 -1.5375,-0.86088 -2,-1.5938 z m -102.56,0.65625 c -0.98443,0.20064 -1.6744,1.4508 -0.3125,4.3438 3.8709,-2.0987 2.2661,-4.2278 0.75,-4.3438 -0.1474,-0.0113 -0.29687,-0.0287 -0.4375,0 z m 28.969,1.5312 c -0.77563,0.0358 -0.78601,3.8354 -2.875,3.6562 -0.0875,0.19129 -0.17642,0.37257 -0.28125,0.53125 -0.089,-0.23661 -0.1983,-0.46114 -0.3125,-0.6875 -0.56697,-0.21143 -1.2466,-0.63947 -2.0938,-1.4375 -0.0224,-0.0211 -0.0406,-0.0414 -0.0625,-0.0625 -0.58004,0.54786 -1.1586,1.4217 -1.6875,2.9062 -0.60318,1.6931 -0.53177,2.7402 -0.125,3.4375 0.95075,-0.67691 2.363,-1.0633 4.2188,-0.9375 -0.0926,0.41697 -0.29224,0.86665 -0.53125,1.3125 0.78468,-0.23906 1.715,-0.35565 2.8125,-0.28125 -0.33884,1.5261 -1.9619,3.2995 -2.5,5 0.33108,0.0817 0.892,0.38395 1.625,0.8125 0.0962,-0.0155 0.18858,-0.0225 0.28125,-0.0312 -0.0167,-0.12118 -0.026,-0.24005 -0.0312,-0.375 -0.34755,-8.9053 6.7464,-2.6918 3.25,-11.062 -0.87409,-2.0927 -1.3474,-2.7969 -1.6875,-2.7812 z m -52,6.125 c -0.89696,0 -1.6363,0.79661 -2.2188,3.5938 -0.71631,3.44 -0.0271,3.7411 1.1562,3.3438 0.30614,-1.2948 1.6202,-2.3024 3,-3.4062 -0.51987,-1.036 -0.64731,-2.1048 -0.40625,-3.0625 -0.54912,-0.2535 -1.0737,-0.46875 -1.5312,-0.46875 z m 62,2.9062 c -2.0597,0.0662 -4.2962,4.3361 -1.125,3.5625 1.1062,-0.59246 2.4342,-2.2982 1.5312,-3.5312 -0.13416,-0.0356 -0.26894,-0.0358 -0.40625,-0.0312 z m -21.906,2.0938 c 0.0254,0.55051 0.0444,1.1078 0.0937,1.6562 -0.34101,-0.13817 -0.72691,-0.31171 -1.1562,-0.5625 -0.20132,-0.1176 -0.36017,-0.25068 -0.53125,-0.375 -0.20087,0.16357 -0.40586,0.36636 -0.625,0.59375 -5.3699,5.5722 1.1478,11.313 -6.1562,14.219 -1.1042,0.43928 -1.8842,0.54854 -2.4375,0.4375 -0.12251,2.5741 -1.7791,6.1944 1.5312,7.1562 0.46646,-0.65739 0.93332,-1.1752 1.375,-1.5938 -0.38583,-0.52656 -0.57925,-1.1465 -0.59375,-1.7812 -0.0375,-1.6386 1.2383,-3.3868 4.0938,-4.3438 0.2346,1.3462 -0.33965,3.2349 -0.40625,4.875 1.0847,0.13295 2.0996,0.83684 3.1562,1.875 1.837,-1.8732 3.4782,-1.7942 5.0938,-0.71875 0.0197,-0.26021 0.0494,-0.53537 0.0937,-0.8125 0.33776,-2.1096 1.1944,-2.732 2.25,-2.6875 -0.17722,-1.3656 -0.0804,-2.8563 0.625,-4.5938 0.005,-0.0135 0.0258,-0.0179 0.0312,-0.0312 -0.63504,-0.40123 -1.2053,-1.2091 -1.625,-2.75 -0.41415,-1.5206 -0.44427,-2.594 -0.28125,-3.375 0.03,0.005 0.0634,0.0263 0.0937,0.0312 3.9034,0.57963 4.0789,-1.0047 3.75,-2.5312 -0.50633,-0.21725 -0.9401,-0.46462 -1.3125,-0.75 -3.5052,4.2037 -4.0309,-4.0801 -7.0625,-3.9375 z m -32.562,5.9688 c -1.0584,0.5874 -2.0876,1.1562 -3.125,1.3438 -2.2638,4.9494 -13.462,1.841 -9.5,8.9062 4.5676,8.1453 8.5955,-7.5309 13.844,-0.0312 1.7229,2.4619 1.4682,4.6554 0.65625,6.6562 -0.003,0.0215 0.002,0.0408 0,0.0625 -0.0388,0.34594 -0.059,0.72199 -0.0625,1.125 -0.18057,0.0609 -0.36613,0.0941 -0.53125,0.125 -1.8231,3.4907 -4.5343,6.376 0.25,9.0312 7.0352,3.9045 7.4041,-5.3531 13.125,-6.3438 0.12917,-1.2887 -0.0705,-2.1577 -0.5625,-2.7188 -3.1842,0.62497 -6.6619,1.4712 -8.75,0.40625 -0.0135,-0.11858 -0.003,-0.24553 0,-0.375 -0.35667,0.0686 -0.71143,0.096 -1.0625,0.15625 0.315,-0.1192 0.65604,-0.14625 1.0625,-0.15625 0.64491,-0.0151 1.3945,0.0875 2.3125,0.40625 2.5395,-0.0589 4.2085,-2.2491 3.7812,-4.6875 -1.0289,-0.30682 -2.0059,-0.53736 -2.9375,-0.75 3.315,-2.7569 4.3374,-0.42284 5.4688,1.9688 0.89437,-0.19011 1.6287,-0.66669 2.1562,-1.3125 -0.72776,-0.90827 -0.63446,-1.6875 -0.1875,-2.1562 0.099,-0.10391 0.21632,-0.1751 0.34375,-0.25 0.2154,-0.12673 0.46202,-0.18656 0.71875,-0.21875 -0.007,-0.20339 -0.0259,-0.41642 -0.0625,-0.625 -4.7371,-1.4139 -8.6412,-2.3346 -9.4375,2.375 -1.4604,-0.2483 -2.6901,-0.22938 -3.6562,0.28125 -0.71699,-1.1245 -1.2787,-2.6253 -1.9688,-3.6562 0.24266,-0.72864 0.43585,-1.3927 0.40625,-1.9062 -0.72063,-0.14318 -1.1002,-0.34368 -1.1875,-0.625 -0.052,-0.16806 0.01,-0.38188 0.125,-0.59375 -0.8074,-0.13046 -2.1552,0.17775 -4.2188,1 -1.5473,-0.10948 -2.2177,-0.40627 -2.3438,-0.8125 -0.38495,-1.2407 4.3522,-3.7126 5.3438,-6.625 z m 126.44,0.125 c -0.11994,-0.002 -0.22539,0.0131 -0.34375,0.0312 -1.657,0.25446 -3.1213,1.8997 -3.25,4.6562 0.21119,-0.3264 0.4487,-0.57214 0.71875,-0.75 -0.58931,0.78149 -0.99813,1.8404 -1.0625,3.2188 0.12031,-0.18594 0.26589,-0.30196 0.40625,-0.4375 0.0117,0.64677 -0.0495,1.1972 -0.125,1.6562 -0.0947,-0.0957 -0.17822,-0.18372 -0.28125,-0.28125 0.0107,0.18168 0.0101,0.34143 0.0312,0.53125 0.0133,0.24329 -0.002,0.46856 0,0.6875 -0.77741,1.8788 -2.7106,1.2792 -4.7188,0.71875 -0.45808,0.82947 -0.57265,1.7427 -0.40625,2.5938 -0.93328,1.837 -0.28702,4.015 1.5625,5.125 3.3908,-2.1578 6.1978,-4.1108 5.5,-6.75 -0.002,-0.009 0.002,-0.0222 0,-0.0312 0.78472,-1.3601 0.66247,-2.8697 -0.96875,-4.6875 1.9113,-0.88783 4.885,0.88286 6.875,0.75 -0.23735,-1.0741 -0.61239,-1.9392 -1.0625,-2.625 0.49508,0.10394 0.98008,0.1847 1.4062,0.15625 -0.64982,-2.9406 -2.2729,-4.3954 -3.9062,-4.5312 -0.12063,-0.01 -0.25506,-0.0292 -0.375,-0.0312 z m -111.66,0.46875 c -4.6328,-0.0911 -1.5939,4.5269 -1.125,6.9062 0.95991,0.23331 2.1216,0.26916 3.4688,-0.0312 1.4728,-0.23841 2.4786,-0.221 3.1875,0 -0.27111,-2.6075 -0.0832,-6.3206 -4.8125,-6.8125 -0.26165,-0.0272 -0.4944,-0.0581 -0.71875,-0.0625 z m 34.281,0.34375 c 0.41502,0.85967 0.78619,1.8429 1.125,2.9375 0.24107,-1.9998 -0.2669,-2.7212 -1.125,-2.9375 z m 35.25,2.2812 c -1.7871,1.183 -3.3353,2.6942 -4.8438,4.2188 1.0399,0.40188 1.9735,1.2255 2.5,2.2812 2.0579,2.7437 4.7349,-1.3655 4.0625,-3.5625 -0.41896,-1.0074 -1.0894,-1.9663 -1.7188,-2.9375 z m -33.719,1 c -0.0999,0.032 -0.19371,0.065 -0.28125,0.125 0.0939,0.31257 0.18791,0.6148 0.28125,0.9375 -1.4577,1.3446 -3.4837,1.4628 -4.9688,0.375 0.17996,0.66978 0.54738,1.4357 1.1875,2.375 0.72741,0.35541 1.3922,0.45593 1.9688,-0.0937 0.0647,0.65476 0.35018,1.1275 0.9375,1.125 0.76432,-1.4317 3.8263,-2.9614 3.5625,-3.875 -0.9346,-0.20668 -1.7222,-0.86823 -2.6875,-0.96875 z m 90.875,0.75 c -0.32939,0.0441 -0.65876,0.11059 -0.96875,0.1875 0.056,0.0931 0.0942,0.1837 0.15625,0.28125 0.3239,-0.153 0.57319,-0.31331 0.8125,-0.46875 z m -52.938,4.4688 c -1.0776,0.0415 -5.3515,0.3092 -3.0312,1.9062 2.5521,0.85096 0.18179,2.5705 -0.125,3.9062 0.28498,0.25202 0.58845,0.48663 0.90625,0.6875 0.76251,-0.15353 1.5795,0.11065 2.3125,1.0625 0.009,0.0128 0.0224,0.0187 0.0312,0.0312 0.88061,0.31029 1.7743,0.59151 2.6562,0.875 0.74774,-0.35376 1.2699,-1.1915 1.125,-2.3438 0.003,-0.86987 0.0217,-1.7644 0.0312,-2.6562 -2.0696,-0.0983 -1.4161,-3.7186 -3.9062,-3.4688 z m 18.938,0.15625 c -0.1957,10e-4 -0.38177,0.0349 -0.5625,0.0937 -1.1245,0.36603 -1.7303,1.8179 0.96875,4.2812 2.4315,-2.9887 0.96366,-4.3839 -0.40625,-4.375 z m -46.906,1.5938 c -0.28883,1.1603 -0.83578,2.6674 -0.71875,3.6562 -0.48059,0.33762 -1.0103,0.1254 -1.4375,-0.375 -0.71049,3.485 -9.9892,-2.0103 -8.375,5.125 0.10344,0.45727 0.23065,0.88521 0.375,1.2812 1.6582,-0.997 2.8619,-3.2925 5,-2.625 2.4449,1.1454 3.1881,4.4819 1.8125,6.7188 -0.25203,0.61531 -0.60801,1.223 -0.96875,1.8438 2.0238,1.2846 3.7058,2.6224 3.5,5.7812 0.75846,-0.0739 1.4737,-0.38789 2.0312,-1 1.703,-1.6405 2.9643,-4.3937 5.7188,-4.2812 2.6738,-0.30369 4.7788,2.113 3.6875,4.6562 0.25626,1.2553 0.69381,-1.901 2,-0.9375 0.96979,0.29041 2.9286,0.73856 1.2812,-0.59375 -1.4171,-2.0612 -3.4291,-3.9612 -4.0312,-6.4375 1.0149,-0.92094 3.9521,-0.9997 2.3438,-3.1562 -0.21075,-0.56023 -0.20206,-0.91137 -0.0625,-1.0938 -0.8739,-0.54226 -1.9082,-0.8071 -2.9688,-0.625 -2.8126,0.88721 -1.3123,5.0965 -3.7812,6.375 -1.9422,0.58513 -5.1838,-1.4187 -3.8438,-3.5938 0.94423,-0.89879 1.7176,-1.9322 2.375,-3.0312 -0.63377,-0.44054 -1.2553,-0.93044 -1.5938,-1.1562 -1.6297,-1.3489 1.6424,-3.445 -0.25,-5.1875 -0.59751,-0.75977 -1.3153,-1.1669 -2.0938,-1.3438 z m 16.125,0.21875 c -0.21132,0.97055 -0.25616,1.9997 -0.28125,3.0312 1.5388,0.0725 4.0938,0.20502 2.625,-1.3438 -0.47164,-0.6337 -1.468,-1.1375 -2.3438,-1.6875 z m -9.875,1.1562 c -0.17414,0.0146 -0.34984,0.0528 -0.53125,0.0937 -1.8834,0.66552 -1.214,2.1953 -0.53125,3.7188 0.21011,-0.52102 0.39573,-1.0626 0.5625,-1.5938 0.28681,-0.73356 0.68045,-1.4853 1.1562,-2.1875 -0.21499,-0.0228 -0.42718,-0.0504 -0.65625,-0.0312 z m 42.125,3.3125 c -0.1957,10e-4 -0.38177,0.0349 -0.5625,0.0937 -1.1245,0.36604 -1.7303,1.8179 0.96875,4.2812 2.4315,-2.9887 0.96366,-4.3839 -0.40625,-4.375 z m -76.562,1.0312 c -0.23199,10e-4 -0.48151,0.0395 -0.75,0.0625 0.64304,0.70676 1.2998,1.4414 1.9688,2.2812 -0.36698,0.79041 -0.95905,1.405 -1.625,1.8125 2.1006,3.0243 2.4586,7.4635 6.5312,3.5938 0.36166,-0.34364 0.67096,-0.70437 0.9375,-1.0312 -0.41156,-0.6569 -0.91599,-1.3138 -1.4062,-2 -0.46416,0.2121 -0.95633,0.35756 -1.4688,0.375 -0.0622,-0.18158 -0.1033,-0.38315 -0.125,-0.53125 -0.29703,0.11004 -0.57565,0.27758 -0.84375,0.4375 -0.20894,-0.0496 -0.45039,-0.1008 -0.65625,-0.1875 0.41058,-2.4461 0.91739,-4.8306 -2.5625,-4.8125 z m -7.7188,1.4688 c -0.31992,0.0204 -0.65415,0.11498 -1,0.28125 -2.1314,0.70614 -4.3896,1.3588 -6.4688,2.3125 0.0543,0.0111 0.10117,0.0189 0.15625,0.0312 8.4144,1.8905 -1.3901,8.5241 7.2188,8.0312 0.21337,-0.0122 0.41033,-0.0425 0.59375,-0.0625 0.29058,-0.46825 0.86012,-0.96012 1.7812,-1.4688 0.0419,-0.0231 0.0836,-0.0405 0.125,-0.0625 -0.87115,-2.3215 -7.8554,-6.5239 -1.25,-8.4062 0.14117,-0.0402 0.27073,-0.0616 0.40625,-0.0937 -0.38623,-0.3685 -0.93946,-0.60229 -1.5625,-0.5625 z m 59.219,2.1875 c -1.1883,1.6004 -0.90149,3.9618 -1.2812,5.875 -0.1456,1.1082 -0.82993,1.9372 -1.75,2.4375 0.407,0.0955 0.85858,-0.0432 1.4062,-0.65625 0.78511,-1.3596 2.5756,-1.6232 3.4375,-1.4688 -0.0689,-2.1657 -1.6663,-4.0256 -1.8125,-6.1875 z m 39.188,1.0938 c -0.81356,0.12878 -1.4712,0.96782 -1,2.7812 -0.62462,0.51754 -0.82968,1.7378 0.25,4.0312 2.6612,-1.4429 2.7381,-2.88 2.0312,-3.6875 1.5372,-1.6276 0.27785,-3.032 -0.9375,-3.125 -0.12033,-0.009 -0.22753,-0.0184 -0.34375,0 z"
           transform="matrix(0.42910151,0,0,0.42910151,156.91777,302.80768)" />
      </g>
      <g
         id="g5030">
        <g
           id="g4999">
          <g
             id="g5337"
             transform="matrix(0.42910151,0,0,0.42910151,233.25922,426.51765)">
            <g
               id="g5327"
               transform="translate(47.219,0)">
              <path
                 id="path5320"
                 sodipodi:r2="11.230937"
                 style="opacity:0.68980001;fill:#e7cc5c"
                 sodipodi:type="star"
                 d="m 163.27099,255.59424 -16.90565,-14.56958 -17.65052,10.93757 8.63236,-20.58047 -15.85656,-13.40674 22.24074,1.85014 7.85062,-19.2234 5.11318,21.72393 20.70851,1.52603 -19.08062,11.57599 z"
                 sodipodi:r1="29.557148"
                 inkscape:transform-center-x="-0.080054121"
                 inkscape:transform-center-y="-0.94928346"
                 transform="matrix(0.36223,-0.029259,0.029259,0.36223,59.158,147.95)"
                 sodipodi:arg2="1.7613421"
                 sodipodi:arg1="1.0471976"
                 inkscape:randomized="0"
                 sodipodi:cy="229.99699"
                 sodipodi:cx="148.49242"
                 inkscape:rounded="0"
                 inkscape:flatsided="false"
                 sodipodi:sides="5" />
              <path
                 id="path5322"
                 d="m 119.59,215.66 -2.2812,7.1875 -8.125,-0.0312 6.125,4.4062 -2.5,7.7188 1.0625,-0.78125 2.1562,-6.5938 -6.125,-4.375 8.0938,0 2,-6.2812 -0.40625,-1.25 z m 10.031,7.6562 -6.9688,0.0625 0.125,0.34375 6.3438,-0.0625 0.5,-0.34375 z m -10.031,7.5 -0.0937,0.0625 5.9375,4.3438 -0.0625,-0.15625 -5.7812,-4.25 z"
                 style="opacity:0.37551;fill:#000000"
                 inkscape:connector-curvature="0" />
            </g>
            <g
               id="g5331"
               transform="translate(47.219,0)">
              <path
                 id="path5333"
                 style="opacity:0.68980001;fill:#e7cc5c"
                 sodipodi:type="star"
                 sodipodi:sides="5"
                 inkscape:transform-center-x="-0.080054121"
                 sodipodi:r1="29.557148"
                 sodipodi:r2="11.230937"
                 inkscape:transform-center-y="-0.94928346"
                 sodipodi:arg1="1.0471976"
                 sodipodi:arg2="1.7613421"
                 transform="matrix(0.36223,-0.029259,0.029259,0.36223,59.158,147.95)"
                 inkscape:randomized="0"
                 sodipodi:cy="229.99699"
                 sodipodi:cx="148.49242"
                 inkscape:rounded="0"
                 inkscape:flatsided="false"
                 d="m 163.27099,255.59424 -16.90565,-14.56958 -17.65052,10.93757 8.63236,-20.58047 -15.85656,-13.40674 22.24074,1.85014 7.85062,-19.2234 5.11318,21.72393 20.70851,1.52603 -19.08062,11.57599 z" />
              <path
                 id="path5335"
                 style="opacity:0.37551;fill:#000000"
                 inkscape:connector-curvature="0"
                 d="m 119.59,215.66 -2.2812,7.1875 -8.125,-0.0312 6.125,4.4062 -2.5,7.7188 1.0625,-0.78125 2.1562,-6.5938 -6.125,-4.375 8.0938,0 2,-6.2812 -0.40625,-1.25 z m 10.031,7.6562 -6.9688,0.0625 0.125,0.34375 6.3438,-0.0625 0.5,-0.34375 z m -10.031,7.5 -0.0937,0.0625 5.9375,4.3438 -0.0625,-0.15625 -5.7812,-4.25 z" />
            </g>
          </g>
          <g
             id="g5345"
             transform="matrix(0.42910151,0,0,0.42910151,221.24438,426.51765)">
            <g
               id="g5347"
               transform="translate(47.219,0)">
              <path
                 id="path5349"
                 style="opacity:0.68980001;fill:#e7cc5c"
                 sodipodi:type="star"
                 sodipodi:sides="5"
                 inkscape:transform-center-x="-0.080054121"
                 sodipodi:r1="29.557148"
                 sodipodi:r2="11.230937"
                 inkscape:transform-center-y="-0.94928346"
                 sodipodi:arg1="1.0471976"
                 sodipodi:arg2="1.7613421"
                 transform="matrix(0.36223,-0.029259,0.029259,0.36223,59.158,147.95)"
                 inkscape:randomized="0"
                 sodipodi:cy="229.99699"
                 sodipodi:cx="148.49242"
                 inkscape:rounded="0"
                 inkscape:flatsided="false"
                 d="m 163.27099,255.59424 -16.90565,-14.56958 -17.65052,10.93757 8.63236,-20.58047 -15.85656,-13.40674 22.24074,1.85014 7.85062,-19.2234 5.11318,21.72393 20.70851,1.52603 -19.08062,11.57599 z" />
              <path
                 id="path5351"
                 style="opacity:0.37551;fill:#000000"
                 inkscape:connector-curvature="0"
                 d="m 119.59,215.66 -2.2812,7.1875 -8.125,-0.0312 6.125,4.4062 -2.5,7.7188 1.0625,-0.78125 2.1562,-6.5938 -6.125,-4.375 8.0938,0 2,-6.2812 -0.40625,-1.25 z m 10.031,7.6562 -6.9688,0.0625 0.125,0.34375 6.3438,-0.0625 0.5,-0.34375 z m -10.031,7.5 -0.0937,0.0625 5.9375,4.3438 -0.0625,-0.15625 -5.7812,-4.25 z" />
            </g>
            <g
               id="g5353"
               transform="translate(47.219,0)">
              <path
                 id="path5355"
                 sodipodi:r2="11.230937"
                 style="opacity:0.68980001;fill:#e7cc5c"
                 sodipodi:type="star"
                 d="m 163.27099,255.59424 -16.90565,-14.56958 -17.65052,10.93757 8.63236,-20.58047 -15.85656,-13.40674 22.24074,1.85014 7.85062,-19.2234 5.11318,21.72393 20.70851,1.52603 -19.08062,11.57599 z"
                 sodipodi:r1="29.557148"
                 inkscape:transform-center-x="-0.080054121"
                 inkscape:transform-center-y="-0.94928346"
                 transform="matrix(0.36223,-0.029259,0.029259,0.36223,59.158,147.95)"
                 sodipodi:arg2="1.7613421"
                 sodipodi:arg1="1.0471976"
                 inkscape:randomized="0"
                 sodipodi:cy="229.99699"
                 sodipodi:cx="148.49242"
                 inkscape:rounded="0"
                 inkscape:flatsided="false"
                 sodipodi:sides="5" />
              <path
                 id="path5357"
                 d="m 119.59,215.66 -2.2812,7.1875 -8.125,-0.0312 6.125,4.4062 -2.5,7.7188 1.0625,-0.78125 2.1562,-6.5938 -6.125,-4.375 8.0938,0 2,-6.2812 -0.40625,-1.25 z m 10.031,7.6562 -6.9688,0.0625 0.125,0.34375 6.3438,-0.0625 0.5,-0.34375 z m -10.031,7.5 -0.0937,0.0625 5.9375,4.3438 -0.0625,-0.15625 -5.7812,-4.25 z"
                 style="opacity:0.37551;fill:#000000"
                 inkscape:connector-curvature="0" />
            </g>
          </g>
          <g
             id="g5359"
             transform="matrix(0.42910151,0,0,0.42910151,246.13226,426.51765)"
             style="fill:#ffdd55">
            <g
               id="g5361"
               transform="translate(47.219,0)"
               style="fill:#ffdd55">
              <path
                 id="path5363"
                 style="opacity:0.68980001;fill:#ffdd55"
                 sodipodi:type="star"
                 sodipodi:sides="5"
                 inkscape:transform-center-x="-0.080054121"
                 sodipodi:r1="29.557148"
                 sodipodi:r2="11.230937"
                 inkscape:transform-center-y="-0.94928346"
                 sodipodi:arg1="1.0471976"
                 sodipodi:arg2="1.7613421"
                 transform="matrix(0.36223,-0.029259,0.029259,0.36223,59.158,147.95)"
                 inkscape:randomized="0"
                 sodipodi:cy="229.99699"
                 sodipodi:cx="148.49242"
                 inkscape:rounded="0"
                 inkscape:flatsided="false"
                 d="m 163.27099,255.59424 -16.90565,-14.56958 -17.65052,10.93757 8.63236,-20.58047 -15.85656,-13.40674 22.24074,1.85014 7.85062,-19.2234 5.11318,21.72393 20.70851,1.52603 -19.08062,11.57599 z" />
              <path
                 id="path5365"
                 style="opacity:0.37551;fill:#ffdd55"
                 inkscape:connector-curvature="0"
                 d="m 119.59,215.66 -2.2812,7.1875 -8.125,-0.0312 6.125,4.4062 -2.5,7.7188 1.0625,-0.78125 2.1562,-6.5938 -6.125,-4.375 8.0938,0 2,-6.2812 -0.40625,-1.25 z m 10.031,7.6562 -6.9688,0.0625 0.125,0.34375 6.3438,-0.0625 0.5,-0.34375 z m -10.031,7.5 -0.0937,0.0625 5.9375,4.3438 -0.0625,-0.15625 -5.7812,-4.25 z" />
            </g>
            <g
               id="g5367"
               transform="translate(47.219,0)"
               style="fill:#ffdd55">
              <path
                 id="path5369"
                 sodipodi:r2="11.230937"
                 style="opacity:0.68980001;fill:#ffdd55"
                 sodipodi:type="star"
                 d="m 163.27099,255.59424 -16.90565,-14.56958 -17.65052,10.93757 8.63236,-20.58047 -15.85656,-13.40674 22.24074,1.85014 7.85062,-19.2234 5.11318,21.72393 20.70851,1.52603 -19.08062,11.57599 z"
                 sodipodi:r1="29.557148"
                 inkscape:transform-center-x="-0.080054121"
                 inkscape:transform-center-y="-0.94928346"
                 transform="matrix(0.36223,-0.029259,0.029259,0.36223,59.158,147.95)"
                 sodipodi:arg2="1.7613421"
                 sodipodi:arg1="1.0471976"
                 inkscape:randomized="0"
                 sodipodi:cy="229.99699"
                 sodipodi:cx="148.49242"
                 inkscape:rounded="0"
                 inkscape:flatsided="false"
                 sodipodi:sides="5" />
              <path
                 id="path5371"
                 d="m 119.59,215.66 -2.2812,7.1875 -8.125,-0.0312 6.125,4.4062 -2.5,7.7188 1.0625,-0.78125 2.1562,-6.5938 -6.125,-4.375 8.0938,0 2,-6.2812 -0.40625,-1.25 z m 10.031,7.6562 -6.9688,0.0625 0.125,0.34375 6.3438,-0.0625 0.5,-0.34375 z m -10.031,7.5 -0.0937,0.0625 5.9375,4.3438 -0.0625,-0.15625 -5.7812,-4.25 z"
                 style="opacity:0.37551;fill:#ffdd55"
                 inkscape:connector-curvature="0" />
            </g>
          </g>
          <g
             id="g4921">
            <g
               id="g4916">
              <g
                 transform="matrix(0.42910151,0,0,0.42910151,234.97562,386.1821)"
                 style="opacity:0.56734996"
                 id="g5380">
                <path
                   inkscape:connector-curvature="0"
                   style="color:#000000;text-indent:0;text-transform:none;block-progression:tb;opacity:0.8;fill:#000000"
                   sodipodi:nodetypes="ccccccccccccc"
                   d="m 101.88,302.59 0,0.40625 0,63 0,0.40625 0.40625,0 0.40625,-0.8125 0,-62.188 122.22,0 0.8125,-0.40625 0,-0.40625 -0.40625,0 -123.03,0 z"
                   id="rect3033" />
                <path
                   d="m 225.72,366.41 0,-0.40625 0,-63 0,-0.40625 -0.40625,0 -0.40625,0.8125 0,62.188 -122.22,0 -0.8125,0.40625 0,0.40625 0.40625,0 123.03,0 z"
                   inkscape:connector-curvature="0"
                   style="color:#000000;text-indent:0;text-transform:none;block-progression:tb;opacity:0.8;fill:#ffffff"
                   sodipodi:nodetypes="ccccccccccccc"
                   id="path5378" />
              </g>
            </g>
            <text
               sodipodi:linespacing="125%"
               id="text4173"
               y="539.50482"
               x="281.14142"
               style="font-style:normal;font-variant:normal;font-weight:bold;font-stretch:normal;font-size:10.79383755px;line-height:125%;font-family:'Times New Roman';-inkscape-font-specification:'Times New Roman';letter-spacing:0px;word-spacing:0px;opacity:1;fill:#ffffff;fill-opacity:1;fill-rule:nonzero;stroke:#2c664e;stroke-width:0.3040877;stroke-linecap:square;stroke-linejoin:miter;stroke-miterlimit:4;stroke-dasharray:0.07602192, 0.07602192;stroke-dashoffset:0;stroke-opacity:1"
               xml:space="preserve"><tspan
                 style="font-style:normal;font-variant:normal;font-weight:bold;font-stretch:normal;font-family:'Nimbus Roman No9 L';-inkscape-font-specification:'Nimbus Roman No9 L Bold';fill:#ffffff;fill-opacity:1;fill-rule:nonzero;stroke:#2c664e;stroke-width:0.3040877;stroke-linecap:square;stroke-linejoin:miter;stroke-miterlimit:4;stroke-dasharray:0.07602192, 0.07602192;stroke-dashoffset:0;stroke-opacity:1"
                 y="539.50482"
                 x="281.14142"
                 id="tspan4175"
                 sodipodi:role="line">HB Raffle</tspan></text>
          </g>
          <path
             d="m 275.70594,512.54821 c 0.0295,0.10406 0.0536,0.20944 0.0536,0.31774 0,0.0548 -0.006,0.11204 -0.0134,0.16579 l 60.19436,0 c -0.008,-0.0538 -0.0134,-0.11094 -0.0134,-0.16579 0,-0.1083 0.0106,-0.21368 0.0402,-0.31774 l -60.26302,0 z"
             inkscape:connector-curvature="0"
             style="opacity:0.71429001;fill:#ffffff"
             id="path5612" />
        </g>
      </g>
    </g>
    <flowRoot
       xml:space="preserve"
       id="flowRoot5155"
       style="fill:black;stroke:none;stroke-opacity:1;stroke-width:1px;stroke-linejoin:miter;stroke-linecap:butt;fill-opacity:1;font-family:Times New Roman;font-style:normal;font-weight:bold;font-size:25px;line-height:125%;letter-spacing:0px;word-spacing:0px;-inkscape-font-specification:Times New Roman;font-stretch:normal;font-variant:normal"><flowRegion
         id="flowRegion5157"><rect
           id="rect5159"
           width="99.500023"
           height="25.001276"
           x="8.3337584"
           y="2.2131088" /></flowRegion><flowPara
         id="flowPara5161"></flowPara></flowRoot>    <g
       transform="matrix(0.27101842,0,0,0.27101842,438.83884,371.41762)"
       id="layer1-2"
       style="fill:#000000">
      <path
         d="m -567.42809,774.5831 c 22.21438,-22.15558 45.9364,-43.41852 69.2127,-63.55502 11.51943,-12.15505 23.80507,-23.55403 34.14789,-36.90239 10.69054,-12.54513 22.34015,-24.23996 30.63007,-38.84121 10.2148,-11.41592 18.65287,-24.9083 19.34135,-40.22553 2.09152,-13.47169 4.9499,-26.68027 9.43313,-39.72885 7.76877,-12.9272 1.65062,-28.69423 1.0552,-42.83002 -1.23155,-12.84089 -2.47822,-26.76033 -1.69492,-40.19809 -3.52872,-14.54122 14.58774,-19.54651 18.53439,-5.01912 5.37295,15.32407 4.77306,32.80721 11.61175,48.01808 6.22412,22.80824 8.48874,-12.23698 11.46965,-19.71583 2.76777,-13.81561 6.65956,-27.13621 10.62412,-40.17582 2.62261,-10.47099 5.095,-33.05157 20.74833,-26.78352 11.31305,7.77829 2.47948,20.90408 1.7521,31.28887 -2.1701,12.85227 -3.14851,25.12567 -4.4336,38.73412 -3.73872,7.99056 -3.1967,35.53315 6.75321,15.71781 8.35243,-19.02653 22.3437,-35.09614 31.91732,-53.53372 4.3733,-10.75382 21.81259,-32.37214 27.6184,-11.19782 -0.9,16.32608 -13.32424,29.28578 -17.67028,44.86556 -3.71284,11.20443 -15.82272,27.9548 -14.81292,35.91763 10.51618,-10.113 21.14192,-20.39574 31.71588,-30.74926 6.61487,-8.68986 19.10077,-24.64333 30.01059,-14.74571 1.91163,16.86307 -18.05501,28.38214 -24.98734,43.6071 -10.76252,14.89537 -20.01118,31.24354 -33.03116,44.17865 -6.10555,10.89378 -11.20956,37.33127 7.76229,36.92896 16.2667,0.4926 35.33838,-4.95335 48.11702,8.87911 12.35522,19.29115 -21.03085,13.85365 -31.47,17.98785 -14.66032,4.32386 -29.20964,4.75073 -41.86359,14.25562 -11.36287,7.69406 -25.81971,7.49208 -36.78962,16.02928 -10.77098,10.58865 -15.16443,24.38209 -23.7828,37.14001 -9.30719,14.24029 -16.57367,29.72892 -26.88867,43.44249 -11.01386,17.24348 -24.57805,33.34509 -29.62992,53.44414 -6.6298,17.34457 -16.43436,33.11958 -25.64853,49.14787 -36.1845,-24.54493 -73.06301,-48.11257 -108.58939,-73.58295 l -1.09326,-1.17833 -0.0665,-0.61832 z"
         id="path3371"
         inkscape:connector-curvature="0"
         style="fill:#000000" />
    </g>
    <text
       xml:space="preserve"
       style="font-style:normal;font-variant:normal;font-weight:bold;font-stretch:normal;font-size:15.1770525px;line-height:125%;font-family:'Times New Roman';-inkscape-font-specification:'Times New Roman';letter-spacing:0px;word-spacing:0px;fill:#ececec;fill-opacity:1;stroke:none;stroke-width:1px;stroke-linecap:butt;stroke-linejoin:miter;stroke-opacity:1"
       x="275.81308"
       y="502.07544"
       id="text5135"
       sodipodi:linespacing="125%"><tspan
         sodipodi:role="line"
         id="tspan5137"
         x="275.81308"
         y="502.07544"
         style="fill:#ffffff">Hang on to that</tspan><tspan
         sodipodi:role="line"
         x="275.81308"
         y="521.04681"
         id="tspan5147"
         style="fill:#ffffff">winning streak</tspan></text>
    <text
       xml:space="preserve"
       style="font-style:normal;font-variant:normal;font-weight:bold;font-stretch:normal;font-size:14.52008247px;line-height:125%;font-family:'Times New Roman';-inkscape-font-specification:'Times New Roman';letter-spacing:0px;word-spacing:0px;fill:#ececec;fill-opacity:1;stroke:none;stroke-width:1px;stroke-linecap:butt;stroke-linejoin:miter;stroke-opacity:1"
       x="281.86856"
       y="568.03833"
       id="text5139"
       sodipodi:linespacing="125%"><tspan
         sodipodi:role="line"
         x="281.86856"
         y="568.03833"
         id="tspan5151"
         style="fill:#ffffff">Has <tspan
   style="fill:#ffd42a"
   id="tspan5184">more</tspan> prizes!</tspan><tspan
         sodipodi:role="line"
         x="281.86856"
         y="586.18842"
         id="tspan5143"
         style="fill:#ffffff" /></text>
  </g>
  <metadata
     id="metadata45">
    <rdf:RDF>
      <cc:Work>
        <dc:format>image/svg+xml</dc:format>
        <dc:type
           rdf:resource="http://purl.org/dc/dcmitype/StillImage" />
        <cc:license
           rdf:resource="http://creativecommons.org/publicdomain/zero/1.0/" />
        <dc:publisher>
          <cc:Agent
             rdf:about="http://openclipart.org/">
            <dc:title>Openclipart</dc:title>
          </cc:Agent>
        </dc:publisher>
        <dc:title></dc:title>
        <dc:date>2011-03-04T21:09:38</dc:date>
        <dc:description />
        <dc:source>https://openclipart.org/detail/125359/ticket-by-rg1024</dc:source>
        <dc:creator>
          <cc:Agent>
            <dc:title>rg1024</dc:title>
          </cc:Agent>
        </dc:creator>
        <dc:subject>
          <rdf:Bag>
            <rdf:li>ticket</rdf:li>
          </rdf:Bag>
        </dc:subject>
      </cc:Work>
      <cc:License
         rdf:about="http://creativecommons.org/publicdomain/zero/1.0/">
        <cc:permits
           rdf:resource="http://creativecommons.org/ns#Reproduction" />
        <cc:permits
           rdf:resource="http://creativecommons.org/ns#Distribution" />
        <cc:permits
           rdf:resource="http://creativecommons.org/ns#DerivativeWorks" />
      </cc:License>
    </rdf:RDF>
  </metadata>
</svg>
